<svg width="22" height="22" viewBox="0 0 22 22" fill="none" xmlns="http://www.w3.org/2000/svg">
<path d="M2.27001 6.50801C1.59001 7.86801 1.20001 9.38801 1.20001 10.998C1.20001 12.608 1.59001 14.128 2.27001 15.488L2.28001 15.478V15.488C3.10769 17.1448 4.38083 18.5381 5.9565 19.5114C7.53217 20.4847 9.34797 20.9995 11.2 20.998C13.9 20.998 16.17 20.108 17.82 18.578C19.71 16.838 20.8 14.268 20.8 11.218C20.8 10.398 20.73 9.79801 20.59 9.17801H11.2V12.888H16.71C16.6 13.808 16 15.198 14.67 16.128C13.83 16.718 12.69 17.128 11.2 17.128C8.56001 17.128 6.31001 15.388 5.51001 12.968C5.30001 12.348 5.18001 11.678 5.18001 10.988C5.18001 10.298 5.30001 9.62801 5.50001 9.00801C5.56001 8.82801 5.63001 8.63801 5.71001 8.46801C6.66001 6.33801 8.76001 4.85801 11.2 4.85801C13.08 4.85801 14.34 5.66801 15.07 6.34801L17.89 3.58801C16.16 1.97801 13.9 0.988007 11.2 0.988007C9.05001 0.988007 7.06001 1.66801 5.43001 2.81801" stroke="white" stroke-width="1.5" stroke-miterlimit="10" stroke-linecap="round" stroke-linejoin="round"/>
</svg>
